<?xml version="1.0" encoding="utf-8"?>
<!-- Generator: Adobe Illustrator 16.0.0, SVG Export Plug-In . SVG Version: 6.00 Build 0)  -->
<!DOCTYPE svg PUBLIC "-//W3C//DTD SVG 1.1//EN" "http://www.w3.org/Graphics/SVG/1.1/DTD/svg11.dtd">
<svg version="1.1" id="圖層_1" xmlns="http://www.w3.org/2000/svg" xmlns:xlink="http://www.w3.org/1999/xlink" x="0px" y="0px"
	 width="30px" height="30px" viewBox="-591.151 -289.151 30 30" enable-background="new -591.151 -289.151 30 30"
	 xml:space="preserve">
<g>
	<path fill="#FFFFFF" d="M-561.234-284.097c0.11,0.11,0.11,0.288,0,0.397l-24.465,24.465c-0.109,0.11-0.288,0.11-0.397,0
		l-4.973-4.972c-0.11-0.11-0.11-0.288,0-0.398l24.465-24.465c0.11-0.11,0.288-0.11,0.398,0L-561.234-284.097z"/>
	<path fill="#FFFFFF" d="M-586.097-289.069c0.11-0.11,0.288-0.11,0.397,0l24.465,24.465c0.11,0.11,0.11,0.288,0,0.398l-4.972,4.972
		c-0.11,0.11-0.288,0.11-0.398,0l-24.465-24.465c-0.11-0.109-0.11-0.288,0-0.397L-586.097-289.069z"/>
</g>
</svg>
