<?xml version="1.0" encoding="utf-8"?>
<!-- Generator: Adobe Illustrator 16.0.0, SVG Export Plug-In . SVG Version: 6.00 Build 0)  -->
<!DOCTYPE svg PUBLIC "-//W3C//DTD SVG 1.1//EN" "http://www.w3.org/Graphics/SVG/1.1/DTD/svg11.dtd">
<svg version="1.1" id="圖層_1" xmlns="http://www.w3.org/2000/svg" xmlns:xlink="http://www.w3.org/1999/xlink" x="0px" y="0px"
	 width="20px" height="20.339px" viewBox="0 0 20 20.339" enable-background="new 0 0 20 20.339" xml:space="preserve">
<g>
	<g>
		<path fill="#FFFFFF" d="M8.725,17.453c-4.809,0-8.723-3.912-8.725-8.722C0.002,3.917,3.916,0.001,8.727,0
			c4.812,0,8.727,3.916,8.729,8.728C17.454,13.54,13.539,17.453,8.725,17.453L8.725,17.453z M8.727,1.751
			C4.882,1.752,1.752,4.883,1.751,8.73c0.001,3.843,3.129,6.972,6.974,6.972c3.848,0,6.979-3.129,6.979-6.974
			C15.701,4.881,12.572,1.751,8.727,1.751L8.727,1.751z"/>
	</g>
	<g>
		<path fill="#FFFFFF" d="M19.125,20.339c-0.225,0-0.447-0.084-0.619-0.256l-4.875-4.873c-0.342-0.344-0.342-0.896,0-1.239
			c0.342-0.342,0.896-0.342,1.238,0l4.875,4.874c0.342,0.342,0.342,0.895,0,1.238C19.572,20.255,19.35,20.339,19.125,20.339
			L19.125,20.339z"/>
	</g>
	<g>
		<path fill="#FFFFFF" d="M8.729,12.949c-0.482,0-0.875-0.393-0.875-0.875V5.179c0-0.483,0.393-0.875,0.875-0.875
			c0.484,0,0.875,0.392,0.875,0.875v6.895C9.604,12.558,9.213,12.949,8.729,12.949L8.729,12.949z"/>
	</g>
	<g>
		<path fill="#FFFFFF" d="M12.176,9.502H5.281c-0.483,0-0.875-0.392-0.875-0.875s0.392-0.875,0.875-0.875h6.895
			c0.484,0,0.875,0.392,0.875,0.875S12.66,9.502,12.176,9.502L12.176,9.502z"/>
	</g>
</g>
</svg>
